<svg width="81" height="18" viewBox="0 0 81 18" fill="none" xmlns="http://www.w3.org/2000/svg">
<path fill-rule="evenodd" clip-rule="evenodd" d="M4.2336 10.2993L3.45469 11.7654V16.6909H0.934692V0.654527H3.45469V7.6418L6.7536 0.654527H9.2736L5.76851 7.80216L9.2736 16.6909H6.68487L4.2336 10.2993ZM12.831 13.0025C12.831 13.5829 12.9494 13.9914 13.1861 14.2282C13.4228 14.4649 13.7397 14.5833 14.1368 14.5833C14.5339 14.5833 14.8508 14.4649 15.0875 14.2282C15.3243 13.9914 15.4426 13.5829 15.4426 13.0025V4.34289C15.4426 3.76252 15.3243 3.35398 15.0875 3.11725C14.8508 2.88052 14.5339 2.76216 14.1368 2.76216C13.7397 2.76216 13.4228 2.88052 13.1861 3.11725C12.9494 3.35398 12.831 3.76252 12.831 4.34289V13.0025ZM10.3111 4.50325C10.3111 3.20506 10.6395 2.20853 11.2962 1.51362C11.9529 0.818703 12.8998 0.471252 14.1369 0.471252C15.374 0.471252 16.3209 0.818703 16.9777 1.51362C17.6344 2.20853 17.9628 3.20506 17.9628 4.50325V12.8422C17.9628 14.1403 17.6344 15.1369 16.9777 15.8318C16.3209 16.5267 15.374 16.8742 14.1369 16.8742C12.8998 16.8742 11.9529 16.5267 11.2962 15.8318C10.6395 15.1369 10.3111 14.1403 10.3111 12.8422V4.50325ZM22.0927 5.07598V16.6909H19.8247V0.654527H22.9862L25.5749 10.2534V0.654527H27.82V16.6909H25.2313L22.0927 5.07598ZM29.5679 4.50325C29.5679 3.20506 29.8772 2.20853 30.4957 1.51362C31.1143 0.818703 32.0421 0.471252 33.2792 0.471252C34.5163 0.471252 35.4441 0.818703 36.0627 1.51362C36.6812 2.20853 36.9905 3.20506 36.9905 4.50325V5.00725H34.6079V4.34289C34.6079 3.76252 34.4972 3.35398 34.2757 3.11725C34.0543 2.88052 33.745 2.76216 33.3479 2.76216C32.9508 2.76216 32.6416 2.88052 32.4201 3.11725C32.1987 3.35398 32.0879 3.76252 32.0879 4.34289C32.0879 4.89271 32.2101 5.37761 32.4545 5.79762C32.6988 6.21762 33.0043 6.61471 33.3708 6.98889C33.7374 7.36307 34.1307 7.73725 34.5507 8.11143C34.9707 8.48562 35.3639 8.89416 35.7305 9.33707C36.097 9.77998 36.4025 10.284 36.6468 10.8491C36.8912 11.4142 37.0134 12.0785 37.0134 12.8422C37.0134 14.1403 36.6965 15.1369 36.0627 15.8318C35.4288 16.5267 34.4934 16.8742 33.2563 16.8742C32.0192 16.8742 31.0837 16.5267 30.4499 15.8318C29.8161 15.1369 29.4992 14.1403 29.4992 12.8422V11.8571H31.8817V13.0025C31.8817 13.5829 32.0001 13.9876 32.2368 14.2167C32.4736 14.4458 32.7905 14.5603 33.1876 14.5603C33.5847 14.5603 33.9016 14.4458 34.1383 14.2167C34.375 13.9876 34.4934 13.5829 34.4934 13.0025C34.4934 12.4527 34.3712 11.9678 34.1268 11.5478C33.8825 11.1278 33.577 10.7307 33.2105 10.3565C32.8439 9.98234 32.4507 9.60816 32.0307 9.23398C31.6107 8.8598 31.2174 8.45125 30.8508 8.00834C30.4843 7.56543 30.1788 7.06144 29.9345 6.49634C29.6901 5.93125 29.5679 5.26689 29.5679 4.50325ZM37.9818 0.654527H45.7709V2.94544H43.1364V16.6909H40.6164V2.94544H37.9818V0.654527ZM52.3984 16.6909C52.3678 16.584 52.3373 16.4847 52.3068 16.3931C52.2762 16.3014 52.2495 16.1869 52.2266 16.0494C52.2037 15.912 52.1884 15.7363 52.1808 15.5225C52.1731 15.3087 52.1693 15.0414 52.1693 14.7207V12.2007C52.1693 11.4523 52.0395 10.9254 51.7798 10.62C51.5202 10.3145 51.1002 10.1618 50.5198 10.1618H49.6493V16.6909H47.1293V0.654527H50.9322C52.2457 0.654527 53.1964 0.959978 53.7844 1.57089C54.3724 2.1818 54.6664 3.10579 54.6664 4.34289V5.60289C54.6664 7.25235 54.1166 8.33671 53.0169 8.85598C53.6584 9.11562 54.0975 9.53943 54.3342 10.1274C54.5709 10.7154 54.6893 11.4294 54.6893 12.2694V14.7436C54.6893 15.1407 54.7046 15.4882 54.7351 15.786C54.7657 16.0838 54.842 16.3854 54.9642 16.6909H52.3984ZM49.6492 2.94544V7.87089H50.6343C51.1077 7.87089 51.4781 7.74871 51.7454 7.50435C52.0126 7.25998 52.1463 6.81708 52.1463 6.17562V4.59489C52.1463 4.01452 52.0432 3.59453 51.837 3.33489C51.6308 3.07525 51.3063 2.94544 50.8634 2.94544H49.6492ZM59.0027 0.654527V13.0254C59.0027 13.6058 59.1211 14.0105 59.3578 14.2396C59.5945 14.4687 59.9114 14.5833 60.3085 14.5833C60.7056 14.5833 61.0225 14.4687 61.2592 14.2396C61.496 14.0105 61.6143 13.6058 61.6143 13.0254V0.654527H63.9969V12.8651C63.9969 14.1633 63.68 15.1598 63.0462 15.8547C62.4123 16.5496 61.4769 16.8971 60.2398 16.8971C59.0027 16.8971 58.0672 16.5496 57.4334 15.8547C56.7996 15.1598 56.4827 14.1633 56.4827 12.8651V0.654527H59.0027ZM72.8594 0.654527H80.6485V2.94544H78.014V16.6909H75.494V2.94544H72.8594V0.654527Z" fill="#171819"/>
<path fill-rule="evenodd" clip-rule="evenodd" d="M65.194 8.9884L71.7394 0.80658V17.1702L65.194 8.9884Z" fill="#00A4E5"/>
</svg>
